<?xml version="1.0" standalone="no"?>
<!DOCTYPE svg PUBLIC "-//W3C//DTD SVG 20010904//EN"
 "http://www.w3.org/TR/2001/REC-SVG-20010904/DTD/svg10.dtd">
<svg version="1.0" xmlns="http://www.w3.org/2000/svg"
 width="512.000000pt" height="512.000000pt" viewBox="0 0 512.000000 512.000000"
 preserveAspectRatio="xMidYMid meet">
<metadata>
Created by potrace 1.11, written by Peter Selinger 2001-2013
</metadata>
<g transform="translate(0.000000,512.000000) scale(0.100000,-0.100000)"
fill="#000000" stroke="none">
<path d="M2432 4457 c-10 -12 -99 -270 -120 -349 -10 -36 -9 -37 19 -43 43
-10 69 3 76 36 8 41 21 48 98 51 l68 3 21 -40 c20 -37 24 -40 69 -43 36 -2 47
0 47 12 0 19 -179 368 -194 378 -18 12 -73 9 -84 -5z m78 -164 c8 -21 16 -41
18 -45 2 -5 -15 -8 -38 -8 l-42 0 7 33 c7 32 22 57 34 57 4 0 13 -17 21 -37z"/>
<path d="M2951 4428 c-11 -28 -59 -257 -67 -319 l-6 -46 46 -13 c26 -7 48 -11
50 -9 2 2 10 35 18 74 21 105 55 100 73 -9 8 -49 50 -92 99 -102 42 -7 52 -1
61 37 6 22 3 27 -19 33 -29 7 -41 26 -51 79 -7 35 -5 38 21 48 84 29 88 143 8
195 -14 10 -60 23 -102 30 -42 8 -87 16 -100 19 -17 4 -24 0 -31 -17z m172
-90 c9 -5 17 -19 17 -31 -1 -36 -24 -57 -61 -57 -53 0 -59 8 -47 63 10 47 10
48 41 41 18 -3 40 -10 50 -16z"/>
<path d="M1665 4250 c-27 -16 -74 -41 -103 -55 -80 -41 -81 -31 18 -208 30
-54 61 -109 67 -122 27 -48 35 -48 124 -2 145 75 159 89 122 129 -16 17 -18
17 -80 -17 -35 -19 -67 -35 -71 -35 -7 0 -42 52 -42 63 0 3 25 19 55 36 l55
31 -15 30 c-9 17 -20 30 -26 30 -5 0 -32 -12 -60 -26 -28 -14 -52 -24 -54 -22
-1 2 -7 13 -13 24 -12 23 -1 38 48 62 14 7 36 21 49 31 23 17 23 21 11 50 -15
37 -21 37 -85 1z"/>
<path d="M3532 4253 c-5 -10 -44 -84 -86 -165 -43 -81 -75 -152 -71 -158 3 -5
43 -28 88 -51 45 -22 90 -47 101 -55 29 -20 40 -18 59 15 20 33 15 39 -65 86
-27 15 -50 31 -53 36 -7 11 23 69 35 69 6 0 33 -12 61 -26 48 -26 50 -26 64
-8 22 28 14 57 -20 73 -32 15 -65 40 -65 50 0 3 7 14 14 23 12 16 18 15 82
-17 l69 -35 18 22 c10 11 16 28 15 37 -3 17 -192 120 -220 121 -10 0 -21 -8
-26 -17z"/>
<path d="M1214 3965 l-26 -35 56 -110 c31 -60 54 -110 52 -110 -3 0 -53 25
-110 55 -93 49 -108 54 -126 43 -35 -22 -34 -51 1 -114 18 -33 36 -61 39 -64
9 -7 41 -73 37 -76 -1 -2 -32 11 -67 28 -36 17 -84 39 -107 49 l-43 18 -30
-25 c-50 -42 -51 -40 105 -109 78 -35 143 -65 177 -82 14 -7 35 -13 45 -13 20
0 63 38 63 56 0 5 -25 53 -54 107 -30 53 -53 97 -51 97 2 0 48 -23 104 -51 97
-49 102 -50 125 -35 44 28 41 46 -30 182 -99 192 -116 224 -125 224 -4 0 -20
-16 -35 -35z"/>
<path d="M2112 3038 c-9 -9 -12 -95 -12 -325 0 -361 -9 -333 109 -333 59 0 72
3 81 19 6 12 10 133 10 324 0 341 1 336 -65 318 -22 -6 -47 -6 -68 0 -40 11
-41 11 -55 -3z"/>
<path d="M3995 3013 c-92 -47 -85 -20 -85 -338 0 -321 -8 -295 90 -295 98 0
90 -31 90 336 l0 324 -22 0 c-13 -1 -45 -12 -73 -27z"/>
<path d="M2747 2963 c-4 -3 -7 -185 -7 -403 0 -295 3 -399 12 -408 13 -13 145
-16 165 -4 9 6 13 63 15 207 3 230 6 235 80 163 24 -24 112 -104 194 -179 82
-75 167 -153 188 -173 22 -20 46 -36 53 -36 10 0 13 79 13 409 0 364 -2 410
-16 415 -31 12 -151 6 -163 -7 -6 -9 -12 -85 -13 -208 -3 -163 -5 -194 -18
-196 -8 -2 -62 40 -120 93 -144 132 -297 273 -332 307 -29 28 -40 32 -51 20z"/>
<path d="M971 2903 c-8 -17 -23 -81 -71 -308 -11 -49 -31 -144 -46 -210 -14
-66 -31 -141 -36 -167 -16 -71 -4 -79 95 -76 95 4 87 -11 117 198 26 178 27
180 50 180 14 0 39 -28 84 -98 35 -54 72 -104 81 -112 20 -17 24 -13 123 123
34 48 66 87 70 87 22 -1 31 -31 58 -195 l29 -180 84 -3 c89 -3 104 4 96 43 -9
47 -71 340 -126 595 -25 114 -34 140 -52 140 -8 0 -67 -79 -132 -175 -79 -117
-123 -175 -135 -175 -12 0 -42 37 -87 103 -37 56 -70 104 -73 107 -3 3 -23 32
-45 65 -51 80 -66 90 -84 58z"/>
<path d="M3666 1714 c-14 -13 -16 -64 -16 -399 0 -441 -9 -405 100 -405 103 0
100 -5 100 183 0 114 4 167 12 175 7 7 44 12 94 12 91 0 94 2 94 70 0 68 -3
70 -94 70 -50 0 -87 5 -94 12 -13 13 -16 116 -4 135 5 8 49 13 137 15 l130 3
3 66 c3 62 1 67 -20 73 -13 3 -114 6 -225 6 -170 0 -204 -2 -217 -16z"/>
<path d="M1143 1461 c-142 -41 -228 -132 -268 -286 -20 -80 -19 -136 6 -225
27 -102 70 -166 144 -216 139 -94 358 -100 543 -14 l62 29 -2 178 -3 178 -70
3 c-121 5 -115 13 -115 -143 l0 -135 -27 -12 c-113 -45 -249 1 -312 104 -24
39 -26 52 -26 149 0 104 1 108 31 150 17 23 50 56 73 73 37 27 51 30 129 34
71 3 98 0 147 -18 33 -12 72 -24 88 -27 l27 -5 0 70 0 70 -48 20 c-27 12 -69
26 -93 31 -69 16 -216 12 -286 -8z"/>
<path d="M2952 1468 c-9 -9 -12 -110 -12 -394 0 -334 2 -385 16 -398 13 -14
47 -16 212 -16 108 0 207 3 219 6 15 4 26 18 33 43 9 32 14 99 8 102 -2 1 -66
5 -143 8 l-140 6 -3 314 c-1 212 -6 319 -13 328 -15 17 -160 18 -177 1z"/>
</g>
</svg>
