<svg width="31" height="30" viewBox="0 0 31 30" fill="none" xmlns="http://www.w3.org/2000/svg">
<g clip-path="url(#clip0)">
<path d="M22.584 20.403C22.584 21.103 21.493 21.68 20.124 21.68C18.755 21.68 17.663 21.126 17.663 20.403C17.663 19.68 18.754 19.126 20.123 19.126C21.492 19.126 22.584 19.683 22.584 20.403Z" stroke="#AEB49A" stroke-width="0.928" stroke-linecap="round" stroke-linejoin="round"/>
<path d="M19.613 0.533974L10.538 4.73397C10.4359 4.78014 10.3251 4.80402 10.213 4.80402C10.1009 4.80402 9.99014 4.78014 9.88801 4.73397L0.905007 0.582973C0.858482 0.558381 0.806307 0.54646 0.753718 0.548406C0.70113 0.550353 0.649978 0.566098 0.605399 0.594062C0.560819 0.622025 0.524379 0.661224 0.499737 0.707722C0.475095 0.75422 0.463117 0.806383 0.465007 0.858973V24.627C0.464806 24.7789 0.508485 24.9277 0.590795 25.0554C0.673106 25.1831 0.790547 25.2844 0.929007 25.347L9.88801 29.479C9.99014 29.5251 10.1009 29.549 10.213 29.549C10.3251 29.549 10.4359 29.5251 10.538 29.479L19.638 25.279C19.7401 25.2328 19.8509 25.2089 19.963 25.2089C20.0751 25.2089 20.1859 25.2328 20.288 25.279L29.265 29.431C29.3118 29.456 29.3644 29.4681 29.4174 29.4662C29.4704 29.4642 29.5219 29.4482 29.5667 29.4199C29.6116 29.3915 29.6481 29.3518 29.6725 29.3047C29.697 29.2577 29.7085 29.205 29.706 29.152V5.38297C29.7062 5.23102 29.6625 5.08225 29.5802 4.95453C29.4979 4.8268 29.3805 4.72556 29.242 4.66297L20.286 0.533974C20.1808 0.484351 20.0659 0.458618 19.9495 0.458618C19.8332 0.458618 19.7182 0.484351 19.613 0.533974V0.533974Z" stroke="#AEB49A" stroke-width="0.928" stroke-linecap="round" stroke-linejoin="round"/>
<path d="M20.101 11.513C15.691 11.977 14.879 17.571 10.793 18.313C4.20101 19.474 3.01701 10.653 9.28401 10.259C13.671 10.004 15.484 8.33296 16.758 4.92096" stroke="#AEB49A" stroke-width="0.928" stroke-linecap="round" stroke-linejoin="round"/>
<path d="M22.561 20.147C27.203 18.986 26.761 14.112 23.561 12.232" stroke="#AEB49A" stroke-width="0.928" stroke-linecap="round" stroke-linejoin="round"/>
<path d="M10.723 25.695C10.723 25.695 11.86 21.424 17.617 20.542" stroke="#AEB49A" stroke-width="0.928" stroke-linecap="round" stroke-linejoin="round"/>
<path d="M20.124 6.01196V21.656" stroke="#AEB49A" stroke-width="0.928" stroke-linecap="round" stroke-linejoin="round"/>
<path d="M20.124 13.926V6.638L27.412 10.282L20.124 13.926Z" stroke="#AEB49A" stroke-width="0.928" stroke-linecap="round" stroke-linejoin="round"/>
</g>
<defs>
<clipPath id="clip0">
<rect width="30.151" height="30" fill="white"/>
</clipPath>
</defs>
</svg>
