<svg width="30" height="30" viewBox="0 0 30 30" fill="none" xmlns="http://www.w3.org/2000/svg">
<g clip-path="url(#clip0)">
<path d="M17.695 28.243C17.6619 28.6059 17.4878 28.9413 17.2102 29.1773C16.9325 29.4132 16.5734 29.5309 16.21 29.505L1.955 29.431C1.59415 29.4561 1.23804 29.3373 0.964482 29.1007C0.69092 28.864 0.522133 28.5287 0.494995 28.168C0.528105 27.8052 0.702168 27.4698 0.979813 27.2338C1.25746 26.9979 1.61655 26.8802 1.98 26.906L16.237 26.98C16.5975 26.9555 16.9531 27.0745 17.2262 27.3111C17.4993 27.5477 17.6678 27.8827 17.695 28.243V28.243Z" stroke="#AEB49A" stroke-width="0.99" stroke-miterlimit="10"/>
<path d="M15.024 25.644C15.0495 25.9445 14.9582 26.2433 14.7692 26.4783C14.5802 26.7133 14.308 26.8665 14.009 26.906L4.18199 26.857C3.88121 26.8213 3.60645 26.669 3.41682 26.4328C3.22719 26.1966 3.13784 25.8954 3.16799 25.594C3.1425 25.2935 3.23374 24.9948 3.42275 24.7598C3.61175 24.5247 3.88401 24.3716 4.18299 24.332L14.01 24.381C14.3108 24.4167 14.5855 24.5691 14.7752 24.8053C14.9648 25.0415 15.0541 25.3426 15.024 25.644V25.644Z" stroke="#AEB49A" stroke-width="0.99" stroke-miterlimit="10"/>
<path d="M28.465 24.877L18.193 15.743C17.921 16.065 17.648 16.362 17.351 16.659C17.054 16.956 16.707 17.253 16.386 17.525L25.619 27.725C25.9971 28.1602 26.5324 28.4276 27.1074 28.4685C27.6824 28.5094 28.2502 28.3204 28.686 27.943C29.0567 27.5043 29.2411 26.9379 29.1998 26.365C29.1585 25.7921 28.8948 25.2581 28.465 24.877V24.877Z" stroke="#AEB49A" stroke-width="0.99" stroke-miterlimit="10"/>
<path d="M18.193 15.745C19.8517 13.8787 20.8587 11.5237 21.062 9.03504L15.123 3.04504C12.2055 3.26849 9.47706 4.57509 7.47399 6.70804C5.33971 8.70532 4.01787 11.4202 3.76199 14.332L9.70299 20.322C12.1731 20.1464 14.5189 19.1717 16.386 17.545C16.708 17.273 17.054 16.976 17.351 16.679C17.648 16.382 17.92 16.065 18.193 15.745Z" stroke="#AEB49A" stroke-width="0.99" stroke-miterlimit="10"/>
<path d="M3.292 13.8611C3.05452 13.6736 2.753 13.5867 2.45218 13.6191C2.15136 13.6514 1.87521 13.8004 1.683 14.0341C1.44689 14.2179 1.29327 14.4878 1.25579 14.7847C1.2183 15.0816 1.3 15.3813 1.483 15.6181L8.389 22.5981C8.62649 22.7855 8.928 22.8724 9.22882 22.84C9.52964 22.8077 9.8058 22.6587 9.998 22.4251C10.2317 22.2328 10.3807 21.9567 10.413 21.6559C10.4453 21.355 10.3585 21.0535 10.171 20.816L9.671 20.316L3.738 14.3331L3.292 13.8611Z" stroke="#AEB49A" stroke-width="0.99" stroke-miterlimit="10"/>
<path d="M21.51 9.50503C21.7475 9.69249 22.049 9.77937 22.3498 9.74702C22.6506 9.71468 22.9268 9.56569 23.119 9.33203C23.3526 9.13982 23.5016 8.86367 23.534 8.56285C23.5663 8.26203 23.4794 7.96051 23.292 7.72303L16.411 0.743027C16.1736 0.555146 15.8719 0.467912 15.5708 0.500075C15.2698 0.532237 14.9934 0.681229 14.801 0.915027C14.5673 1.10723 14.4183 1.38339 14.386 1.68421C14.3536 1.98503 14.4405 2.28654 14.628 2.52403L15.148 3.04403L21.089 9.03403L21.51 9.50503Z" stroke="#AEB49A" stroke-width="0.99" stroke-miterlimit="10"/>
</g>
<defs>
<clipPath id="clip0">
<rect width="29.703" height="30" fill="white"/>
</clipPath>
</defs>
</svg>
