<svg width="30" height="30" viewBox="0 0 30 30" fill="none" xmlns="http://www.w3.org/2000/svg">
<g clip-path="url(#clip0)">
<path d="M6.16299 2.58598L6.20899 11.958C6.2107 13.1285 6.44328 14.2872 6.89344 15.3677C7.3436 16.4483 8.00248 17.4294 8.83235 18.2549C9.66223 19.0804 10.6468 19.7341 11.7297 20.1785C12.8125 20.623 13.9725 20.8494 15.143 20.845C17.429 20.7965 19.6047 19.8527 21.202 18.2165C22.7993 16.5803 23.6905 14.3825 23.684 12.096L23.638 2.53898C23.6377 1.98855 23.4191 1.46071 23.0301 1.07131C22.641 0.681915 22.1134 0.46277 21.563 0.461975C17.2689 1.96485 12.5944 1.98105 8.28999 0.507975H8.24399C7.97085 0.507581 7.70032 0.561039 7.44786 0.665292C7.1954 0.769544 6.96596 0.922546 6.77269 1.11555C6.57941 1.30854 6.42608 1.53775 6.32146 1.79007C6.21684 2.04238 6.16299 2.31284 6.16299 2.58598V2.58598Z" stroke="#AEB49A" stroke-width="0.923" stroke-linecap="round" stroke-linejoin="round"/>
<path d="M14.935 20.891V29.548" stroke="#AEB49A" stroke-width="0.923" stroke-linecap="round" stroke-linejoin="round"/>
<path d="M10.572 29.548H19.275" stroke="#AEB49A" stroke-width="0.923" stroke-linecap="round" stroke-linejoin="round"/>
<path d="M15.651 6.69496L16.459 8.31096C16.5165 8.42682 16.6011 8.52717 16.7055 8.60356C16.8099 8.67996 16.9311 8.73016 17.059 8.74996L18.813 9.00396C18.9582 9.02909 19.0938 9.09346 19.205 9.1901C19.3163 9.28674 19.399 9.41197 19.4442 9.55224C19.4894 9.69251 19.4954 9.84247 19.4615 9.9859C19.4277 10.1293 19.3552 10.2608 19.252 10.366L17.959 11.613C17.8653 11.7046 17.7953 11.8177 17.7551 11.9424C17.7148 12.0672 17.7055 12.1998 17.728 12.329L18.028 14.106C18.0468 14.2505 18.0261 14.3974 17.9681 14.5312C17.9102 14.6649 17.8172 14.7805 17.6989 14.8657C17.5806 14.9509 17.4415 15.0025 17.2963 15.015C17.151 15.0276 17.0051 15.0006 16.874 14.937L15.281 14.106C15.1667 14.0472 15.04 14.0165 14.9115 14.0165C14.783 14.0165 14.6563 14.0472 14.542 14.106L12.949 14.937C12.8179 15.0006 12.6719 15.0276 12.5267 15.015C12.3815 15.0025 12.2424 14.9509 12.1241 14.8657C12.0058 14.7805 11.9128 14.6649 11.8548 14.5312C11.7969 14.3974 11.7762 14.2505 11.795 14.106L12.095 12.329C12.1174 12.1998 12.1082 12.0672 12.0679 11.9424C12.0277 11.8177 11.9577 11.7046 11.864 11.613L10.573 10.365C10.4694 10.2582 10.3973 10.125 10.3647 9.97993C10.332 9.83486 10.3399 9.68358 10.3877 9.54275C10.4355 9.40193 10.5212 9.27702 10.6354 9.18177C10.7496 9.08653 10.8879 9.02465 11.035 9.00295L12.812 8.74895C12.9398 8.72916 13.0611 8.67896 13.1655 8.60256C13.2699 8.52617 13.3544 8.42582 13.412 8.30996L14.22 6.69395C14.2885 6.56345 14.3913 6.45416 14.5174 6.37791C14.6435 6.30166 14.7881 6.26135 14.9355 6.26135C15.0829 6.26135 15.2274 6.30166 15.3535 6.37791C15.4797 6.45416 15.5825 6.56345 15.651 6.69395V6.69496Z" stroke="#AEB49A" stroke-width="0.923" stroke-linecap="round" stroke-linejoin="round"/>
<path d="M2.23899 4.10895C1.97241 4.10925 1.70931 4.16952 1.46919 4.28531C1.22906 4.40109 1.01806 4.56942 0.851825 4.77782C0.685586 4.98622 0.568365 5.22935 0.508846 5.4892C0.449327 5.74905 0.449035 6.01897 0.507992 6.27895C0.859862 7.74022 1.55701 9.09581 2.54097 10.232C3.52492 11.3682 4.76699 12.2519 6.16299 12.8089V4.10895H2.23899Z" stroke="#AEB49A" stroke-width="0.923" stroke-linecap="round" stroke-linejoin="round"/>
<path d="M27.608 4.10895C27.8746 4.10925 28.1377 4.16952 28.3778 4.28531C28.6179 4.40109 28.8289 4.56942 28.9952 4.77782C29.1614 4.98622 29.2786 5.22935 29.3381 5.4892C29.3977 5.74905 29.3979 6.01897 29.339 6.27895C28.9871 7.74022 28.29 9.09581 27.306 10.232C26.3221 11.3682 25.08 12.2519 23.684 12.8089V4.10895H27.608Z" stroke="#AEB49A" stroke-width="0.923" stroke-linecap="round" stroke-linejoin="round"/>
</g>
<defs>
<clipPath id="clip0">
<rect width="29.848" height="30" fill="white"/>
</clipPath>
</defs>
</svg>
