<svg width="31" height="31" viewBox="0 0 31 31" fill="none" xmlns="http://www.w3.org/2000/svg">
<path d="M6.69901 2.58598L6.745 11.958C6.74671 13.1285 6.97929 14.2872 7.42945 15.3677C7.87961 16.4483 8.53849 17.4294 9.36836 18.2549C10.1982 19.0804 11.1828 19.7341 12.2657 20.1785C13.3486 20.623 14.5085 20.8494 15.679 20.845C17.9651 20.7965 20.1407 19.8527 21.738 18.2165C23.3353 16.5803 24.2265 14.3825 24.22 12.096L24.174 2.53898C24.1737 1.98855 23.9551 1.46071 23.5661 1.07131C23.1771 0.681915 22.6494 0.46277 22.099 0.461975C17.8049 1.96485 13.1304 1.98105 8.826 0.507975H8.78C8.50687 0.507581 8.23633 0.561039 7.98387 0.665292C7.73141 0.769544 7.50197 0.922546 7.3087 1.11555C7.11542 1.30854 6.96209 1.53775 6.85747 1.79007C6.75285 2.04238 6.699 2.31284 6.69901 2.58598V2.58598Z" stroke="#FF6350" stroke-width="0.923" stroke-linecap="round" stroke-linejoin="round"/>
<path d="M15.471 20.891V29.548" stroke="#FF6350" stroke-width="0.923" stroke-linecap="round" stroke-linejoin="round"/>
<path d="M11.108 29.548H19.811" stroke="#FF6350" stroke-width="0.923" stroke-linecap="round" stroke-linejoin="round"/>
<path d="M16.187 6.69496L16.995 8.31096C17.0526 8.42682 17.1371 8.52717 17.2415 8.60356C17.3459 8.67996 17.4672 8.73016 17.595 8.74996L19.349 9.00396C19.4942 9.02909 19.6298 9.09346 19.7411 9.1901C19.8523 9.28674 19.935 9.41197 19.9802 9.55224C20.0255 9.69251 20.0314 9.84247 19.9976 9.9859C19.9637 10.1293 19.8912 10.2608 19.788 10.366L18.495 11.613C18.4013 11.7046 18.3313 11.8177 18.2911 11.9424C18.2508 12.0672 18.2415 12.1998 18.264 12.329L18.564 14.106C18.5828 14.2505 18.5621 14.3974 18.5042 14.5312C18.4462 14.6649 18.3532 14.7805 18.2349 14.8657C18.1166 14.9509 17.9775 15.0025 17.8323 15.015C17.687 15.0276 17.5411 15.0006 17.41 14.937L15.817 14.106C15.7027 14.0472 15.576 14.0165 15.4475 14.0165C15.319 14.0165 15.1923 14.0472 15.078 14.106L13.485 14.937C13.3539 15.0006 13.208 15.0276 13.0627 15.015C12.9175 15.0025 12.7784 14.9509 12.6601 14.8657C12.5418 14.7805 12.4488 14.6649 12.3908 14.5312C12.3329 14.3974 12.3122 14.2505 12.331 14.106L12.631 12.329C12.6535 12.1998 12.6442 12.0672 12.6039 11.9424C12.5637 11.8177 12.4937 11.7046 12.4 11.613L11.109 10.365C11.0054 10.2582 10.9334 10.125 10.9007 9.97993C10.868 9.83486 10.876 9.68358 10.9237 9.54275C10.9715 9.40193 11.0572 9.27702 11.1714 9.18177C11.2856 9.08653 11.4239 9.02465 11.571 9.00295L13.348 8.74895C13.4758 8.72916 13.5971 8.67896 13.7015 8.60256C13.8059 8.52617 13.8904 8.42582 13.948 8.30996L14.756 6.69395C14.8245 6.56345 14.9273 6.45416 15.0534 6.37791C15.1796 6.30166 15.3241 6.26135 15.4715 6.26135C15.6189 6.26135 15.7634 6.30166 15.8896 6.37791C16.0157 6.45416 16.1185 6.56345 16.187 6.69395V6.69496Z" stroke="#FF6350" stroke-width="0.923" stroke-linecap="round" stroke-linejoin="round"/>
<path d="M2.775 4.10895C2.50842 4.10925 2.24532 4.16952 2.0052 4.28531C1.76507 4.40109 1.55408 4.56942 1.38784 4.77782C1.2216 4.98622 1.10438 5.22935 1.04486 5.4892C0.985337 5.74905 0.985046 6.01897 1.044 6.27895C1.39587 7.74022 2.09302 9.09581 3.07698 10.232C4.06093 11.3682 5.303 12.2519 6.699 12.8089V4.10895H2.775Z" stroke="#FF6350" stroke-width="0.923" stroke-linecap="round" stroke-linejoin="round"/>
<path d="M28.144 4.10895C28.4106 4.10925 28.6737 4.16952 28.9138 4.28531C29.1539 4.40109 29.3649 4.56942 29.5312 4.77782C29.6974 4.98622 29.8146 5.22935 29.8741 5.4892C29.9337 5.74905 29.934 6.01897 29.875 6.27895C29.5231 7.74022 28.826 9.09581 27.842 10.232C26.8581 11.3682 25.616 12.2519 24.22 12.8089V4.10895H28.144Z" stroke="#FF6350" stroke-width="0.923" stroke-linecap="round" stroke-linejoin="round"/>
</svg>
