<svg xmlns="http://www.w3.org/2000/svg" xmlns:xlink="http://www.w3.org/1999/xlink" width="135.446" height="147.686" viewBox="0 0 135.446 147.686"><defs><style>.a{fill:none;}.b{clip-path:url(#a);}.c{fill:#005d63;}.d{fill:#ff8e67;}.e{opacity:0.5;}.f{clip-path:url(#c);}.g{fill:#a9e0bf;}</style><clipPath id="a"><rect class="a" width="135.446" height="147.686"/></clipPath><clipPath id="c"><rect class="a" width="15.533" height="15.533"/></clipPath></defs><g transform="translate(67.723 73.843)"><g class="b" transform="translate(-67.723 -73.843)"><g class="b"><path class="c" d="M17.983,87.9C8.249,87.9,1,82.31,1,71.747S8.456,55.8,17.983,55.8a21.332,21.332,0,0,1,10.148,2.485,1.036,1.036,0,0,1,.414,1.036v3.728a1.036,1.036,0,0,1-1.45.828A17.19,17.19,0,0,0,18.811,61.6,9.527,9.527,0,0,0,8.87,71.954c0,6.834,4.349,10.355,9.734,10.355a12.84,12.84,0,0,0,4.142-.828,1.036,1.036,0,0,0,.621-1.036V71.333A1.036,1.036,0,0,1,24.4,70.3h5.385a1.036,1.036,0,0,1,1.036,1.036V83.552a1.036,1.036,0,0,1-.414.828A25.267,25.267,0,0,1,18.19,87.9" transform="translate(1.071 59.764)"/><path class="d" d="M36.068,83.408c-9.32,0-16.568-5.8-16.568-16.154S26.956,51.1,36.068,51.1s16.568,5.8,16.568,16.154S45.181,83.408,36.068,83.408" transform="translate(20.885 54.73)"/><path class="c" d="M40.936,55.9H46.32a1.036,1.036,0,0,1,1.036,1.036v23.61a1.036,1.036,0,0,0,1.036,1.036h9.527a1.036,1.036,0,0,1,1.036,1.243l-.828,3.728a1.036,1.036,0,0,1-1.036.828H40.936A1.036,1.036,0,0,1,39.9,86.344V56.936A1.036,1.036,0,0,1,40.936,55.9" transform="translate(42.735 59.871)"/><path class="c" d="M59.62,82.78H54.236A1.036,1.036,0,0,1,53.2,81.744V52.336A1.036,1.036,0,0,1,54.236,51.3H70.6a1.036,1.036,0,0,1,1.036,1.036v3.728A1.036,1.036,0,0,1,70.6,57.1H61.691a1.036,1.036,0,0,0-1.036,1.036v3.728A1.036,1.036,0,0,0,61.691,62.9h5.592a1.036,1.036,0,0,1,1.036,1.036v3.728A1.036,1.036,0,0,1,67.283,68.7H61.691a1.036,1.036,0,0,0-1.036,1.036V81.744A1.036,1.036,0,0,1,59.62,82.78" transform="translate(56.979 54.944)"/><path class="c" d="M28.8,29.84,34.8,58.006a1.036,1.036,0,0,1-1.036,1.243H28.591a1.036,1.036,0,0,1-1.036-.828L25.485,45.373a1.036,1.036,0,0,0-1.864-.414l-5.385,7.456a1.036,1.036,0,0,1-1.657,0L11.4,44.752a1.036,1.036,0,0,0-1.864.414L7.467,58.213a1.036,1.036,0,0,1-1.036.828H1.046A1.036,1.036,0,0,1,.011,57.8L6.017,29.84a1.036,1.036,0,0,1,1.864-.414l8.7,12.84a1.036,1.036,0,0,0,1.657,0l8.7-12.84a1.036,1.036,0,0,1,1.864.414" transform="translate(-0.011 31.048)"/><path class="c" d="M43.556,44.875V58.959a1.036,1.036,0,0,1-1.036,1.036H37.136A1.036,1.036,0,0,1,36.1,58.959V28.1h1.243l17.6,16.361a1.036,1.036,0,0,0,1.657-.828V29.55a1.036,1.036,0,0,1,1.036-1.036h5.385a1.036,1.036,0,0,1,1.036,1.036V60.408H62.816L45.005,44.047a1.036,1.036,0,0,0-1.657.828" transform="translate(38.665 30.096)"/><path class="c" d="M58.314,29.439,63.7,26.746a1.036,1.036,0,0,1,1.45.828v23.61a1.036,1.036,0,0,1-1.036,1.036H58.936A1.036,1.036,0,0,1,57.9,51.185V30.267a1.036,1.036,0,0,1,.621-.828" transform="translate(62.013 28.551)"/><path class="c" d="M28.137,27.267a6.627,6.627,0,0,1-2.485-.621,1.036,1.036,0,0,0-1.45,1.036v23.61a1.036,1.036,0,0,0,1.036,1.036h5.385a1.036,1.036,0,0,0,1.036-1.036V27.681a1.036,1.036,0,0,0-1.45-1.036,6.627,6.627,0,0,1-2.485.621" transform="translate(25.917 28.444)"/><g class="e" transform="translate(119.913 35.001)"><g class="f"><path class="d" d="M57.9,17.875V31.336a1.036,1.036,0,0,0,1.45.828L72.812,25.33a1.036,1.036,0,0,0,0-1.864L59.35,17.046a1.036,1.036,0,0,0-1.45.828" transform="translate(-57.9 -16.839)"/></g></g><path class="g" d="M33.641,23.271A4.971,4.971,0,1,1,28.671,18.3a4.971,4.971,0,0,1,4.971,4.971" transform="translate(25.384 19.6)"/><path class="c" d="M1.1,24.327l1.864-1.864h.828l7.042,3.314,1.657,1.036-1.036-1.657L7.522,18.321a.621.621,0,0,1,0-.828l1.45-1.657H9.8l7.042,3.728L18.5,20.6l-1.036-1.657-3.728-7.249a.621.621,0,0,1,.207-.828L15.6,9a.621.621,0,0,1,1.036.207l6.834,13.255a.621.621,0,0,1-.207.828l-1.657,1.657h-.828l-6.627-3.314-1.45-.828.828,1.243,3.728,6.834a.621.621,0,0,1-.207.828l-1.657,1.657h-.621L1.309,25.363A.621.621,0,0,1,1.1,24.327" transform="translate(0.969 9.431)"/><path class="c" d="M13.256,7.991,21.54,3.641a.621.621,0,0,1,.828.207L23.2,5.505a.621.621,0,0,1-.207.828L18.433,9.026a.621.621,0,0,0-.207.828l.621,1.036a.621.621,0,0,0,.828.207L23.2,9.233a.621.621,0,0,1,.828.207l.828,1.657a.621.621,0,0,1-.207.828l-3.521,1.864a.621.621,0,0,0-.207.828l1.036,1.864a.621.621,0,0,0,.828.207L27.339,14.2a.621.621,0,0,1,.828.207L29,16.068a.621.621,0,0,1-.207.828L20.5,21.245a.621.621,0,0,1-.828-.207L12.841,9.026a.621.621,0,0,1,.207-.828" transform="translate(13.668 3.814)"/><path class="c" d="M33.3.207H36l.621.414L43.658,14.29a.621.621,0,0,1-.621,1.036H40.345l-.621-.414-1.036-2.485-.621-.414-4.971.414-.621.414-.828,2.485-.621.414H28.54a.621.621,0,0,1-.621-.828L32.682.414,33.3,0m3.314,8.284L35.581,6.006a.621.621,0,0,0-1.243,0l-.621,2.278a.621.621,0,0,0,.621.828H36a.621.621,0,0,0,.621-1.036" transform="translate(29.864 0)"/><path class="c" d="M48.56,1.661,42.346.419a.621.621,0,0,0-.828.621l-2.9,13.669a.621.621,0,0,0,.621.828l2.692.621a.621.621,0,0,0,.828-.621L43.8,10.36h1.45l.621,3.107A4.556,4.556,0,0,0,49.8,17.608h1.657a.621.621,0,0,0,.621-.621,8.076,8.076,0,0,1,.207-1.036.828.828,0,0,0-.828-1.036A2.485,2.485,0,0,1,49.6,12.845l-.414-1.657a.621.621,0,0,1,.414-.828,4.349,4.349,0,0,0,3.314-3.521A4.763,4.763,0,0,0,48.56,1.661m.207,4.971c-.207,1.243-1.243,1.864-2.692,1.45L44.21,7.667l1.036-3.935,1.864.414c1.657.414,2.071,1.243,1.864,2.485" transform="translate(41.324 0.41)"/><path class="c" d="M55.19,3.6l8.284,4.349a.621.621,0,0,1,.207.828l-.828,1.657a.621.621,0,0,1-.828.207L57.468,8.363a.621.621,0,0,0-.828.207l-.621,1.036a.621.621,0,0,0,.207.828L59.746,12.3a.621.621,0,0,1,.207.828l-.828,1.657a.621.621,0,0,1-.828.207l-3.521-1.864a.621.621,0,0,0-.828.207L52.912,15.2a.621.621,0,0,0,.207.828l4.763,2.9a.621.621,0,0,1,.207.828l-.828,1.657a.621.621,0,0,1-.828.207l-8.284-4.349a.621.621,0,0,1-.207-.828l6.42-12.426a.621.621,0,0,1,.828-.207" transform="translate(51.262 3.856)"/></g></g></g></svg>