<svg xmlns="http://www.w3.org/2000/svg" xmlns:xlink="http://www.w3.org/1999/xlink" width="29.703" height="30" viewBox="0 0 29.703 30"><defs><style>.a,.c,.d,.e,.f,.g,.h{fill:none;}.b{clip-path:url(#a);}.c,.d,.e,.f,.g,.h{stroke:#aeb49a;stroke-miterlimit:10;}.c{stroke-width:0.99px;}.d{stroke-width:0.99px;}.e{stroke-width:0.99px;}.f{stroke-width:0.99px;}.g{stroke-width:0.99px;}.h{stroke-width:0.99px;}</style><clipPath id="a"><rect class="a" width="29.703" height="30"/></clipPath></defs><g transform="translate(14.851 15)"><g class="b" transform="translate(-14.851 -15)"><path class="c" d="M19.2,110.037h0a1.392,1.392,0,0,1-1.485,1.262L3.46,111.225A1.369,1.369,0,0,1,2,109.962,1.392,1.392,0,0,1,3.485,108.7l14.257.074A1.369,1.369,0,0,1,19.2,110.037Z" transform="translate(-1.505 -81.794)"/><path class="d" d="M24.656,99.612h0a1.173,1.173,0,0,1-1.015,1.262l-9.827-.05A1.156,1.156,0,0,1,12.8,99.562,1.173,1.173,0,0,1,13.815,98.3l9.827.05A1.156,1.156,0,0,1,24.656,99.612Z" transform="translate(-9.632 -73.968)"/><path class="e" d="M78.279,72.734,68.007,63.6c-.272.322-.545.619-.842.916s-.644.594-.965.866l9.233,10.2A2.176,2.176,0,0,0,78.5,75.8,2.2,2.2,0,0,0,78.279,72.734Z" transform="translate(-49.814 -47.857)"/><path class="f" d="M29.631,25A11.512,11.512,0,0,0,32.5,18.29L26.561,12.3a11.721,11.721,0,0,0-7.649,3.663A11.864,11.864,0,0,0,15.2,23.587l5.941,5.99A11.405,11.405,0,0,0,27.824,26.8c.322-.272.668-.569.965-.866S29.358,25.32,29.631,25Z" transform="translate(-11.438 -9.255)"/><path class="g" d="M7.064,55.228a1.156,1.156,0,0,0-1.609.173,1.131,1.131,0,0,0-.2,1.584l6.906,6.98a1.156,1.156,0,0,0,1.609-.173,1.156,1.156,0,0,0,.173-1.609l-.5-.5L7.51,55.7Z" transform="translate(-3.772 -41.367)"/><path class="h" d="M65.209,10.99a1.156,1.156,0,0,0,1.609-.173,1.156,1.156,0,0,0,.173-1.609L60.11,2.228A1.156,1.156,0,0,0,58.5,2.4a1.156,1.156,0,0,0-.173,1.609l.52.52,5.941,5.99Z" transform="translate(-43.699 -1.485)"/></g></g></svg>